<svg xmlns="http://www.w3.org/2000/svg" viewBox="0 0 400 300" role="img" aria-label="little helps theme thumbnail">
  <rect width="400" height="300" fill="#ffffff"/>
  <rect width="400" height="34" fill="#00539f"/>
  <rect y="34" width="400" height="3" fill="#ee1c2e"/>
  <rect y="37" width="400" height="48" fill="#ffffff"/>
  <text x="24" y="68" fill="#ee1c2e" font-family="Arial, Helvetica, sans-serif" font-size="28" font-weight="700">fridge.dev</text>
  <rect x="24" y="73" width="72" height="4" fill="#00539f"/>
  <rect x="108" y="73" width="24" height="4" fill="#ee1c2e"/>
  <rect x="168" y="52" width="150" height="20" fill="#ffffff" stroke="#777777" stroke-width="1"/>
  <circle cx="332" cy="62" r="13" fill="#00539f"/>
  <rect y="85" width="400" height="38" fill="#ffffff" stroke="#d7d7d7" stroke-width="1"/>
  <text x="28" y="109" fill="#00539f" font-family="Arial, Helvetica, sans-serif" font-size="14" font-weight="700">feed</text>
  <text x="82" y="109" fill="#00539f" font-family="Arial, Helvetica, sans-serif" font-size="14" font-weight="700">journal</text>
  <text x="156" y="109" fill="#00539f" font-family="Arial, Helvetica, sans-serif" font-size="14" font-weight="700">music</text>
  <text x="218" y="109" fill="#00539f" font-family="Arial, Helvetica, sans-serif" font-size="14" font-weight="700">tools</text>
  <rect y="123" width="400" height="177" fill="#f6f7f8"/>
  <rect x="32" y="146" width="336" height="120" fill="#ffffff" stroke="#d7d7d7" stroke-width="2"/>
  <rect x="32" y="146" width="262" height="5" fill="#00539f"/>
  <rect x="294" y="146" width="74" height="5" fill="#ee1c2e"/>
  <rect x="56" y="178" width="190" height="15" rx="7.5" fill="#f5f5f5"/>
  <rect x="56" y="206" width="148" height="15" rx="7.5" fill="#f5f5f5"/>
  <rect x="56" y="234" width="86" height="22" rx="11" fill="#ffffff" stroke="#00539f" stroke-width="3"/>
  <text x="99" y="249" fill="#00539f" font-family="Arial, Helvetica, sans-serif" font-size="13" font-weight="700" text-anchor="middle">save</text>
</svg>
